<svg width="1000" height="470" viewBox="0 0 1000 470" fill="none" xmlns="http://www.w3.org/2000/svg">
<defs>
<linearGradient id="rhythmBg" x1="0" y1="0" x2="1000" y2="470"><stop stop-color="#0f172a"/><stop offset="1" stop-color="#312e81"/></linearGradient>
<linearGradient id="rhythmBar" x1="0" y1="0" x2="1000" y2="0"><stop stop-color="#667eea"/><stop offset="1" stop-color="#764ba2"/></linearGradient>
</defs>
<rect width="1000" height="470" rx="26" fill="url(#rhythmBg)"/>
<circle cx="920" cy="40" r="130" fill="#667eea" opacity="0.12"/>
<text x="30" y="44" fill="#ffffff" font-size="25" font-weight="900" font-family="Inter,'Segoe UI',system-ui,sans-serif">Coding Rhythm</text>
<text x="30" y="66" fill="#94a3b8" font-size="12.5" font-family="Inter,'Segoe UI',system-ui,sans-serif">Night owl or early bird? Real commit timestamps decide — circular statistics, 24-hour polar chart</text>
<rect x="30" y="80" width="940" height="3.5" rx="1.75" fill="url(#rhythmBar)"/>

<circle cx="240" cy="250" r="41.25" fill="none" stroke="#ffffff" stroke-opacity="0.08" stroke-width="1"/><circle cx="240" cy="250" r="82.5" fill="none" stroke="#ffffff" stroke-opacity="0.08" stroke-width="1"/><circle cx="240" cy="250" r="123.75" fill="none" stroke="#ffffff" stroke-opacity="0.08" stroke-width="1"/><circle cx="240" cy="250" r="165" fill="none" stroke="#ffffff" stroke-opacity="0.08" stroke-width="1"/>
<path d="M 240 250 L 233.48 200.47 A 49.95833333333333 49.95833333333333 0 0 1 246.52 200.47 Z" fill="#3572A5" fill-opacity="0.72" stroke="#0b1020" stroke-width="0.8"/><path d="M 240 250 L 241.56 238.19 A 11.916666666666666 11.916666666666666 0 0 1 244.56 238.99 Z" fill="#3572A5" fill-opacity="0.72" stroke="#0b1020" stroke-width="0.8"/><path d="M 240 250 L 242.81 243.22 A 7.333333333333334 7.333333333333334 0 0 1 244.46 244.18 Z" fill="#3572A5" fill-opacity="0.72" stroke="#0b1020" stroke-width="0.8"/><path d="M 240 250 L 245.86 242.36 A 9.625 9.625 0 0 1 247.64 244.14 Z" fill="#3572A5" fill-opacity="0.72" stroke="#0b1020" stroke-width="0.8"/><path d="M 240 250 L 248.00 243.86 A 10.083333333333332 10.083333333333332 0 0 1 249.32 246.14 Z" fill="#3572A5" fill-opacity="0.72" stroke="#0b1020" stroke-width="0.8"/><path d="M 240 250 L 262.02 240.88 A 23.833333333333332 23.833333333333332 0 0 1 263.63 246.89 Z" fill="#3572A5" fill-opacity="0.72" stroke="#0b1020" stroke-width="0.8"/><path d="M 240 250 L 271.81 245.81 A 32.083333333333336 32.083333333333336 0 0 1 271.81 254.19 Z" fill="#3572A5" fill-opacity="0.72" stroke="#0b1020" stroke-width="0.8"/><path d="M 240 250 L 292.26 256.88 A 52.70833333333333 52.70833333333333 0 0 1 288.70 270.17 Z" fill="#3572A5" fill-opacity="0.72" stroke="#0b1020" stroke-width="0.8"/><path d="M 240 250 L 262.44 259.30 A 24.291666666666668 24.291666666666668 0 0 1 259.27 264.79 Z" fill="#3572A5" fill-opacity="0.72" stroke="#0b1020" stroke-width="0.8"/><path d="M 240 250 L 279.63 280.41 A 49.95833333333333 49.95833333333333 0 0 1 270.41 289.63 Z" fill="#3572A5" fill-opacity="0.72" stroke="#0b1020" stroke-width="0.8"/><path d="M 240 250 L 257.86 273.27 A 29.333333333333336 29.333333333333336 0 0 1 251.23 277.10 Z" fill="#3572A5" fill-opacity="0.72" stroke="#0b1020" stroke-width="0.8"/><path d="M 240 250 L 260.35 299.12 A 53.16666666666667 53.16666666666667 0 0 1 246.94 302.71 Z" fill="#3572A5" fill-opacity="0.72" stroke="#0b1020" stroke-width="0.8"/><path d="M 240 250 L 248.02 310.89 A 61.41666666666667 61.41666666666667 0 0 1 231.98 310.89 Z" fill="#3572A5" fill-opacity="0.72" stroke="#0b1020" stroke-width="0.8"/><path d="M 240 250 L 234.26 293.62 A 44 44 0 0 1 223.16 290.65 Z" fill="#3572A5" fill-opacity="0.72" stroke="#0b1020" stroke-width="0.8"/><path d="M 240 250 L 225.62 284.72 A 37.583333333333336 37.583333333333336 0 0 1 217.12 279.82 Z" fill="#3572A5" fill-opacity="0.72" stroke="#0b1020" stroke-width="0.8"/><path d="M 240 250 L 218.52 278.00 A 35.291666666666664 35.291666666666664 0 0 1 212.00 271.48 Z" fill="#3572A5" fill-opacity="0.72" stroke="#0b1020" stroke-width="0.8"/><path d="M 240 250 L 192.37 286.55 A 60.041666666666664 60.041666666666664 0 0 1 184.53 272.98 Z" fill="#3572A5" fill-opacity="0.72" stroke="#0b1020" stroke-width="0.8"/><path d="M 240 250 L 188.76 271.22 A 55.458333333333336 55.458333333333336 0 0 1 185.02 257.24 Z" fill="#3572A5" fill-opacity="0.72" stroke="#0b1020" stroke-width="0.8"/><path d="M 240 250 L 187.29 256.94 A 53.16666666666667 53.16666666666667 0 0 1 187.29 243.06 Z" fill="#3572A5" fill-opacity="0.72" stroke="#0b1020" stroke-width="0.8"/><path d="M 240 250 L 203.19 245.15 A 37.125 37.125 0 0 1 205.70 235.79 Z" fill="#3572A5" fill-opacity="0.72" stroke="#0b1020" stroke-width="0.8"/><path d="M 240 250 L 183.68 226.67 A 60.958333333333336 60.958333333333336 0 0 1 191.64 212.89 Z" fill="#3572A5" fill-opacity="0.72" stroke="#0b1020" stroke-width="0.8"/><path d="M 240 250 L 136.37 170.48 A 130.625 130.625 0 0 1 160.48 146.37 Z" fill="#3572A5" fill-opacity="0.72" stroke="#0b1020" stroke-width="0.8"/><path d="M 240 250 L 139.55 119.10 A 165 165 0 0 1 176.86 97.56 Z" fill="#fbbf24" fill-opacity="1" stroke="#0b1020" stroke-width="0.8"/><path d="M 240 250 L 177.38 98.83 A 163.625 163.625 0 0 1 218.64 87.77 Z" fill="#3572A5" fill-opacity="0.72" stroke="#0b1020" stroke-width="0.8"/>
<text x="240.00" y="65.00" text-anchor="middle" fill="#5b6478" font-size="10.5" font-weight="700" font-family="Inter,'Segoe UI',system-ui,sans-serif">0</text><text x="373.64" y="120.36" text-anchor="middle" fill="#5b6478" font-size="10.5" font-weight="700" font-family="Inter,'Segoe UI',system-ui,sans-serif">3</text><text x="429.00" y="254.00" text-anchor="middle" fill="#5b6478" font-size="10.5" font-weight="700" font-family="Inter,'Segoe UI',system-ui,sans-serif">6</text><text x="373.64" y="387.64" text-anchor="middle" fill="#5b6478" font-size="10.5" font-weight="700" font-family="Inter,'Segoe UI',system-ui,sans-serif">9</text><text x="240.00" y="443.00" text-anchor="middle" fill="#5b6478" font-size="10.5" font-weight="700" font-family="Inter,'Segoe UI',system-ui,sans-serif">12</text><text x="106.36" y="387.64" text-anchor="middle" fill="#5b6478" font-size="10.5" font-weight="700" font-family="Inter,'Segoe UI',system-ui,sans-serif">15</text><text x="51.00" y="254.00" text-anchor="middle" fill="#5b6478" font-size="10.5" font-weight="700" font-family="Inter,'Segoe UI',system-ui,sans-serif">18</text><text x="106.36" y="120.36" text-anchor="middle" fill="#5b6478" font-size="10.5" font-weight="700" font-family="Inter,'Segoe UI',system-ui,sans-serif">21</text>
<g transform="translate(560 120)">
<text x="0" y="20" fill="#ffffff" font-size="44" font-family="Inter,'Segoe UI',system-ui,sans-serif">🦉</text>
<text x="64" y="20" fill="#a78bfa" font-size="26" font-weight="900" font-family="Inter,'Segoe UI',system-ui,sans-serif">NIGHT OWL</text>
<text x="64" y="44" fill="#cbd5e1" font-size="14" font-weight="700" font-family="Inter,'Segoe UI',system-ui,sans-serif">33.2% of all commits</text>
<text x="0" y="70" fill="#5b6478" font-size="11.5" font-family="Inter,'Segoe UI',system-ui,sans-serif">classified from 2,746 real commit timestamps (Asia/Jakarta)</text>
</g>
<g transform="translate(560 200)">
<g transform="translate(0 78)">
<text x="0" y="14" fill="#cbd5e1" font-size="12" font-weight="700" font-family="Inter,'Segoe UI',system-ui,sans-serif">🦉 Night Owl</text>
<rect x="150" y="2" width="250" height="13" rx="6.5" fill="#1e293b"/>
<rect x="150" y="2" width="82.9388201019665" height="13" rx="6.5" fill="#a78bfa"/>
<text x="412" y="13" fill="#e2e8f0" font-size="12" font-weight="800" text-anchor="end" font-family="Inter,'Segoe UI',system-ui,sans-serif">33.2%</text>
</g><g transform="translate(0 52)">
<text x="0" y="14" fill="#cbd5e1" font-size="12" font-weight="700" font-family="Inter,'Segoe UI',system-ui,sans-serif">🐦 Early Bird</text>
<rect x="150" y="2" width="250" height="13" rx="6.5" fill="#1e293b"/>
<rect x="150" y="2" width="36.325564457392574" height="13" rx="6.5" fill="#fbbf24"/>
<text x="412" y="13" fill="#e2e8f0" font-size="12" font-weight="800" text-anchor="end" font-family="Inter,'Segoe UI',system-ui,sans-serif">14.5%</text>
</g><g transform="translate(0 26)">
<text x="0" y="14" fill="#cbd5e1" font-size="12" font-weight="700" font-family="Inter,'Segoe UI',system-ui,sans-serif">☀️ Day Coder</text>
<rect x="150" y="2" width="250" height="13" rx="6.5" fill="#1e293b"/>
<rect x="150" y="2" width="63.729060451565914" height="13" rx="6.5" fill="#16a34a"/>
<text x="412" y="13" fill="#e2e8f0" font-size="12" font-weight="800" text-anchor="end" font-family="Inter,'Segoe UI',system-ui,sans-serif">25.5%</text>
</g><g transform="translate(0 0)">
<text x="0" y="14" fill="#cbd5e1" font-size="12" font-weight="700" font-family="Inter,'Segoe UI',system-ui,sans-serif">🌆 Evening</text>
<rect x="150" y="2" width="250" height="13" rx="6.5" fill="#1e293b"/>
<rect x="150" y="2" width="67.00655498907501" height="13" rx="6.5" fill="#f97316"/>
<text x="412" y="13" fill="#e2e8f0" font-size="12" font-weight="800" text-anchor="end" font-family="Inter,'Segoe UI',system-ui,sans-serif">26.8%</text>
</g>
</g>
<g transform="translate(30 396)">
<rect width="150" height="54" rx="12" fill="#0d1322" stroke="#f59e0b" stroke-opacity="0.35" stroke-width="1.2"/>
<text x="14" y="20" fill="#8b93a7" font-size="10.5" font-weight="700" letter-spacing="1.2" font-family="Inter,'Segoe UI',system-ui,sans-serif">PEAK HOUR</text>
<text x="14" y="42" fill="#f59e0b" font-size="17" font-weight="800" font-family="Inter,'Segoe UI',system-ui,sans-serif">22:00</text>
</g><g transform="translate(190 396)">
<rect width="150" height="54" rx="12" fill="#0d1322" stroke="#2563eb" stroke-opacity="0.35" stroke-width="1.2"/>
<text x="14" y="20" fill="#8b93a7" font-size="10.5" font-weight="700" letter-spacing="1.2" font-family="Inter,'Segoe UI',system-ui,sans-serif">SAMPLED</text>
<text x="14" y="42" fill="#2563eb" font-size="17" font-weight="800" font-family="Inter,'Segoe UI',system-ui,sans-serif">2,746</text>
</g><g transform="translate(350 396)">
<rect width="170" height="54" rx="12" fill="#0d1322" stroke="#667eea" stroke-opacity="0.35" stroke-width="1.2"/>
<text x="14" y="20" fill="#8b93a7" font-size="10.5" font-weight="700" letter-spacing="1.2" font-family="Inter,'Segoe UI',system-ui,sans-serif">MEAN (CIRCULAR)</text>
<text x="14" y="42" fill="#667eea" font-size="17" font-weight="800" font-family="Inter,'Segoe UI',system-ui,sans-serif">20.0:00</text>
</g><g transform="translate(530 396)">
<rect width="150" height="54" rx="12" fill="#0d1322" stroke="#16a34a" stroke-opacity="0.35" stroke-width="1.2"/>
<text x="14" y="20" fill="#8b93a7" font-size="10.5" font-weight="700" letter-spacing="1.2" font-family="Inter,'Segoe UI',system-ui,sans-serif">ACTIVE HOURS</text>
<text x="14" y="42" fill="#16a34a" font-size="17" font-weight="800" font-family="Inter,'Segoe UI',system-ui,sans-serif">24/24</text>
</g><g transform="translate(690 396)">
<rect width="130" height="54" rx="12" fill="#0d1322" stroke="#db2777" stroke-opacity="0.35" stroke-width="1.2"/>
<text x="14" y="20" fill="#8b93a7" font-size="10.5" font-weight="700" letter-spacing="1.2" font-family="Inter,'Segoe UI',system-ui,sans-serif">STD DEV</text>
<text x="14" y="42" fill="#db2777" font-size="17" font-weight="800" font-family="Inter,'Segoe UI',system-ui,sans-serif">6.1h</text>
</g><g transform="translate(830 396)">
<rect width="140" height="54" rx="12" fill="#0d1322" stroke="#a78bfa" stroke-opacity="0.35" stroke-width="1.2"/>
<text x="14" y="20" fill="#8b93a7" font-size="10.5" font-weight="700" letter-spacing="1.2" font-family="Inter,'Segoe UI',system-ui,sans-serif">DOMINANT</text>
<text x="14" y="42" fill="#a78bfa" font-size="17" font-weight="800" font-family="Inter,'Segoe UI',system-ui,sans-serif">Night Owl</text>
</g>
<text x="240" y="452" text-anchor="middle" fill="#5b6478" font-size="10.5" font-family="Inter,'Segoe UI',system-ui,sans-serif">24-hour commit distribution · ring radius ∝ commit count · gold wedge = peak hour</text>

</svg>
