<svg width="640" height="260" viewBox="0 0 640 260" fill="none" xmlns="http://www.w3.org/2000/svg">
<defs>
<linearGradient id="clockBg" x1="0" y1="0" x2="640" y2="260"><stop stop-color="#0f172a"/><stop offset="1" stop-color="#312e81"/></linearGradient>
<linearGradient id="clockRing" x1="0" y1="0" x2="1" y2="1"><stop stop-color="#a78bfa"/><stop offset="1" stop-color="#f59e0b"/></linearGradient>
</defs>
<rect width="640" height="260" rx="24" fill="url(#clockBg)"/>
<circle cx="580" cy="40" r="110" fill="#667eea" opacity="0.12"/>

<g>
<circle cx="128" cy="128" r="96" fill="#0a0e1a" stroke="url(#clockRing)" stroke-width="3"/>
<line x1="128.00" y1="46.00" x2="128.00" y2="32.00" stroke="#cbd5e1" stroke-width="2.5" stroke-linecap="round"/><line x1="137.41" y1="38.49" x2="138.03" y2="32.53" stroke="#3b4254" stroke-width="1" stroke-linecap="round"/><line x1="146.71" y1="39.97" x2="147.96" y2="34.10" stroke="#3b4254" stroke-width="1" stroke-linecap="round"/><line x1="155.81" y1="42.40" x2="157.67" y2="36.70" stroke="#3b4254" stroke-width="1" stroke-linecap="round"/><line x1="164.61" y1="45.78" x2="167.05" y2="40.30" stroke="#3b4254" stroke-width="1" stroke-linecap="round"/><line x1="169.00" y1="56.99" x2="176.00" y2="44.86" stroke="#cbd5e1" stroke-width="2.5" stroke-linecap="round"/><line x1="180.90" y1="55.19" x2="184.43" y2="50.33" stroke="#3b4254" stroke-width="1" stroke-linecap="round"/><line x1="188.22" y1="61.12" x2="192.24" y2="56.66" stroke="#3b4254" stroke-width="1" stroke-linecap="round"/><line x1="194.88" y1="67.78" x2="199.34" y2="63.76" stroke="#3b4254" stroke-width="1" stroke-linecap="round"/><line x1="200.81" y1="75.10" x2="205.67" y2="71.57" stroke="#3b4254" stroke-width="1" stroke-linecap="round"/><line x1="199.01" y1="87.00" x2="211.14" y2="80.00" stroke="#cbd5e1" stroke-width="2.5" stroke-linecap="round"/><line x1="210.22" y1="91.39" x2="215.70" y2="88.95" stroke="#3b4254" stroke-width="1" stroke-linecap="round"/><line x1="213.60" y1="100.19" x2="219.30" y2="98.33" stroke="#3b4254" stroke-width="1" stroke-linecap="round"/><line x1="216.03" y1="109.29" x2="221.90" y2="108.04" stroke="#3b4254" stroke-width="1" stroke-linecap="round"/><line x1="217.51" y1="118.59" x2="223.47" y2="117.97" stroke="#3b4254" stroke-width="1" stroke-linecap="round"/><line x1="210.00" y1="128.00" x2="224.00" y2="128.00" stroke="#cbd5e1" stroke-width="2.5" stroke-linecap="round"/><line x1="217.51" y1="137.41" x2="223.47" y2="138.03" stroke="#3b4254" stroke-width="1" stroke-linecap="round"/><line x1="216.03" y1="146.71" x2="221.90" y2="147.96" stroke="#3b4254" stroke-width="1" stroke-linecap="round"/><line x1="213.60" y1="155.81" x2="219.30" y2="157.67" stroke="#3b4254" stroke-width="1" stroke-linecap="round"/><line x1="210.22" y1="164.61" x2="215.70" y2="167.05" stroke="#3b4254" stroke-width="1" stroke-linecap="round"/><line x1="199.01" y1="169.00" x2="211.14" y2="176.00" stroke="#cbd5e1" stroke-width="2.5" stroke-linecap="round"/><line x1="200.81" y1="180.90" x2="205.67" y2="184.43" stroke="#3b4254" stroke-width="1" stroke-linecap="round"/><line x1="194.88" y1="188.22" x2="199.34" y2="192.24" stroke="#3b4254" stroke-width="1" stroke-linecap="round"/><line x1="188.22" y1="194.88" x2="192.24" y2="199.34" stroke="#3b4254" stroke-width="1" stroke-linecap="round"/><line x1="180.90" y1="200.81" x2="184.43" y2="205.67" stroke="#3b4254" stroke-width="1" stroke-linecap="round"/><line x1="169.00" y1="199.01" x2="176.00" y2="211.14" stroke="#cbd5e1" stroke-width="2.5" stroke-linecap="round"/><line x1="164.61" y1="210.22" x2="167.05" y2="215.70" stroke="#3b4254" stroke-width="1" stroke-linecap="round"/><line x1="155.81" y1="213.60" x2="157.67" y2="219.30" stroke="#3b4254" stroke-width="1" stroke-linecap="round"/><line x1="146.71" y1="216.03" x2="147.96" y2="221.90" stroke="#3b4254" stroke-width="1" stroke-linecap="round"/><line x1="137.41" y1="217.51" x2="138.03" y2="223.47" stroke="#3b4254" stroke-width="1" stroke-linecap="round"/><line x1="128.00" y1="210.00" x2="128.00" y2="224.00" stroke="#cbd5e1" stroke-width="2.5" stroke-linecap="round"/><line x1="118.59" y1="217.51" x2="117.97" y2="223.47" stroke="#3b4254" stroke-width="1" stroke-linecap="round"/><line x1="109.29" y1="216.03" x2="108.04" y2="221.90" stroke="#3b4254" stroke-width="1" stroke-linecap="round"/><line x1="100.19" y1="213.60" x2="98.33" y2="219.30" stroke="#3b4254" stroke-width="1" stroke-linecap="round"/><line x1="91.39" y1="210.22" x2="88.95" y2="215.70" stroke="#3b4254" stroke-width="1" stroke-linecap="round"/><line x1="87.00" y1="199.01" x2="80.00" y2="211.14" stroke="#cbd5e1" stroke-width="2.5" stroke-linecap="round"/><line x1="75.10" y1="200.81" x2="71.57" y2="205.67" stroke="#3b4254" stroke-width="1" stroke-linecap="round"/><line x1="67.78" y1="194.88" x2="63.76" y2="199.34" stroke="#3b4254" stroke-width="1" stroke-linecap="round"/><line x1="61.12" y1="188.22" x2="56.66" y2="192.24" stroke="#3b4254" stroke-width="1" stroke-linecap="round"/><line x1="55.19" y1="180.90" x2="50.33" y2="184.43" stroke="#3b4254" stroke-width="1" stroke-linecap="round"/><line x1="56.99" y1="169.00" x2="44.86" y2="176.00" stroke="#cbd5e1" stroke-width="2.5" stroke-linecap="round"/><line x1="45.78" y1="164.61" x2="40.30" y2="167.05" stroke="#3b4254" stroke-width="1" stroke-linecap="round"/><line x1="42.40" y1="155.81" x2="36.70" y2="157.67" stroke="#3b4254" stroke-width="1" stroke-linecap="round"/><line x1="39.97" y1="146.71" x2="34.10" y2="147.96" stroke="#3b4254" stroke-width="1" stroke-linecap="round"/><line x1="38.49" y1="137.41" x2="32.53" y2="138.03" stroke="#3b4254" stroke-width="1" stroke-linecap="round"/><line x1="46.00" y1="128.00" x2="32.00" y2="128.00" stroke="#cbd5e1" stroke-width="2.5" stroke-linecap="round"/><line x1="38.49" y1="118.59" x2="32.53" y2="117.97" stroke="#3b4254" stroke-width="1" stroke-linecap="round"/><line x1="39.97" y1="109.29" x2="34.10" y2="108.04" stroke="#3b4254" stroke-width="1" stroke-linecap="round"/><line x1="42.40" y1="100.19" x2="36.70" y2="98.33" stroke="#3b4254" stroke-width="1" stroke-linecap="round"/><line x1="45.78" y1="91.39" x2="40.30" y2="88.95" stroke="#3b4254" stroke-width="1" stroke-linecap="round"/><line x1="56.99" y1="87.00" x2="44.86" y2="80.00" stroke="#cbd5e1" stroke-width="2.5" stroke-linecap="round"/><line x1="55.19" y1="75.10" x2="50.33" y2="71.57" stroke="#3b4254" stroke-width="1" stroke-linecap="round"/><line x1="61.12" y1="67.78" x2="56.66" y2="63.76" stroke="#3b4254" stroke-width="1" stroke-linecap="round"/><line x1="67.78" y1="61.12" x2="63.76" y2="56.66" stroke="#3b4254" stroke-width="1" stroke-linecap="round"/><line x1="75.10" y1="55.19" x2="71.57" y2="50.33" stroke="#3b4254" stroke-width="1" stroke-linecap="round"/><line x1="87.00" y1="56.99" x2="80.00" y2="44.86" stroke="#cbd5e1" stroke-width="2.5" stroke-linecap="round"/><line x1="91.39" y1="45.78" x2="88.95" y2="40.30" stroke="#3b4254" stroke-width="1" stroke-linecap="round"/><line x1="100.19" y1="42.40" x2="98.33" y2="36.70" stroke="#3b4254" stroke-width="1" stroke-linecap="round"/><line x1="109.29" y1="39.97" x2="108.04" y2="34.10" stroke="#3b4254" stroke-width="1" stroke-linecap="round"/><line x1="118.59" y1="38.49" x2="117.97" y2="32.53" stroke="#3b4254" stroke-width="1" stroke-linecap="round"/>
<text x="128.00" y="63.00" text-anchor="middle" fill="#94a3b8" font-size="15" font-weight="800" font-family="Inter,'Segoe UI',system-ui,sans-serif">12</text><text x="163.00" y="72.38" text-anchor="middle" fill="#94a3b8" font-size="15" font-weight="800" font-family="Inter,'Segoe UI',system-ui,sans-serif">1</text><text x="188.62" y="98.00" text-anchor="middle" fill="#94a3b8" font-size="15" font-weight="800" font-family="Inter,'Segoe UI',system-ui,sans-serif">2</text><text x="198.00" y="133.00" text-anchor="middle" fill="#94a3b8" font-size="15" font-weight="800" font-family="Inter,'Segoe UI',system-ui,sans-serif">3</text><text x="188.62" y="168.00" text-anchor="middle" fill="#94a3b8" font-size="15" font-weight="800" font-family="Inter,'Segoe UI',system-ui,sans-serif">4</text><text x="163.00" y="193.62" text-anchor="middle" fill="#94a3b8" font-size="15" font-weight="800" font-family="Inter,'Segoe UI',system-ui,sans-serif">5</text><text x="128.00" y="203.00" text-anchor="middle" fill="#94a3b8" font-size="15" font-weight="800" font-family="Inter,'Segoe UI',system-ui,sans-serif">6</text><text x="93.00" y="193.62" text-anchor="middle" fill="#94a3b8" font-size="15" font-weight="800" font-family="Inter,'Segoe UI',system-ui,sans-serif">7</text><text x="67.38" y="168.00" text-anchor="middle" fill="#94a3b8" font-size="15" font-weight="800" font-family="Inter,'Segoe UI',system-ui,sans-serif">8</text><text x="58.00" y="133.00" text-anchor="middle" fill="#94a3b8" font-size="15" font-weight="800" font-family="Inter,'Segoe UI',system-ui,sans-serif">9</text><text x="67.38" y="98.00" text-anchor="middle" fill="#94a3b8" font-size="15" font-weight="800" font-family="Inter,'Segoe UI',system-ui,sans-serif">10</text><text x="93.00" y="72.38" text-anchor="middle" fill="#94a3b8" font-size="15" font-weight="800" font-family="Inter,'Segoe UI',system-ui,sans-serif">11</text>
<g transform="rotate(222 128 128)">
<line x1="128" y1="148" x2="128" y2="84" stroke="#e2e8f0" stroke-width="6" stroke-linecap="round"/>
<animateTransform attributeName="transform" type="rotate" from="222 128 128" to="582 128 128" dur="43200s" repeatCount="indefinite"/>
</g>
<g transform="rotate(144.4 128 128)">
<line x1="128" y1="148" x2="128" y2="60" stroke="#c7d2fe" stroke-width="4" stroke-linecap="round"/>
<animateTransform attributeName="transform" type="rotate" from="144.4 128 128" to="504.4 128 128" dur="3600s" repeatCount="indefinite"/>
</g>
<g transform="rotate(24 128 128)">
<line x1="128" y1="148" x2="128" y2="48" stroke="#f59e0b" stroke-width="2" stroke-linecap="round"/>
<animateTransform attributeName="transform" type="rotate" from="24 128 128" to="384 128 128" dur="60s" repeatCount="indefinite"/>
</g>
<circle cx="128" cy="128" r="6" fill="#f59e0b"/>
<circle cx="128" cy="128" r="2.5" fill="#0b1020"/>
</g>
<g transform="translate(250 70)">
<rect width="360" height="70" rx="16" fill="#0d1322" stroke="#667eea" stroke-opacity="0.4" stroke-width="1.2"/>
<text x="180" y="36" text-anchor="middle" fill="#ffffff" font-size="40" font-weight="900" font-family="Inter,'Segoe UI',system-ui,sans-serif">19:24:04</text>
<text x="180" y="58" text-anchor="middle" fill="#94a3b8" font-size="12" font-weight="700" letter-spacing="2" font-family="Inter,'Segoe UI',system-ui,sans-serif">WIB · ASIA/JAKARTA · UTC+7</text>
</g>
<g transform="translate(250 158)">
<circle cx="14" cy="10" r="6" fill="#22c55e">
<animate attributeName="opacity" values="1;0.25;1" dur="1.6s" repeatCount="indefinite"/>
</circle>
<text x="30" y="15" fill="#e2e8f0" font-size="17" font-weight="800" font-family="Inter,'Segoe UI',system-ui,sans-serif">02 August 2026</text>
<text x="0" y="38" fill="#64748b" font-size="12" font-family="Inter,'Segoe UI',system-ui,sans-serif">Sunday · refreshed by GitHub Actions every 30 minutes</text>
</g>

<text x="320" y="238" text-anchor="middle" fill="#5b6478" font-size="10.5" font-family="Inter,'Segoe UI',system-ui,sans-serif">LIVE · generated 02 Aug 2026, 19:24 · auto-updates every 30 min</text>
</svg>
