<svg width="900" height="340" viewBox="0 0 900 340" fill="none" xmlns="http://www.w3.org/2000/svg"><defs><linearGradient id="bg" x1="0" y1="0" x2="900" y2="340"><stop stop-color="#0f172a"/><stop offset=".55" stop-color="#111827"/><stop offset="1" stop-color="#312e81"/></linearGradient><linearGradient id="bar" x1="0" y1="0" x2="900" y2="0"><stop stop-color="#667eea"/><stop offset="1" stop-color="#764ba2"/></linearGradient></defs><rect width="900" height="340" rx="28" fill="url(#bg)"/><circle cx="790" cy="45" r="130" fill="#667eea" opacity=".12"/><circle cx="110" cy="320" r="145" fill="#764ba2" opacity=".14"/><text x="28" y="48" fill="#fff" font-size="30" font-weight="800" font-family="Segoe UI,Arial">Aka Anak Baik · GitHub Analytics</text><text x="28" y="75" fill="#cbd5e1" font-size="14" font-family="Segoe UI,Arial">Auto-generated from GitHub API · Asia/Jakarta · 15 May 2026, 17:52</text><rect x="28" y="91" width="844" height="4" rx="2" fill="url(#bar)"/><g transform="translate(28 118)"><rect width="188" height="78" rx="17" fill="#111827" stroke="#667eea" stroke-width="1.3"/><text x="17" y="29" fill="#94a3b8" font-size="13" font-family="Segoe UI,Arial">Public Repos</text><text x="17" y="57" fill="#fff" font-size="22" font-weight="700" font-family="Segoe UI,Arial">100</text></g><g transform="translate(239 118)"><rect width="188" height="78" rx="17" fill="#111827" stroke="#764ba2" stroke-width="1.3"/><text x="17" y="29" fill="#94a3b8" font-size="13" font-family="Segoe UI,Arial">Original Repos</text><text x="17" y="57" fill="#fff" font-size="22" font-weight="700" font-family="Segoe UI,Arial">81</text></g><g transform="translate(450 118)"><rect width="188" height="78" rx="17" fill="#111827" stroke="#f59e0b" stroke-width="1.3"/><text x="17" y="29" fill="#94a3b8" font-size="13" font-family="Segoe UI,Arial">Total Stars</text><text x="17" y="57" fill="#fff" font-size="22" font-weight="700" font-family="Segoe UI,Arial">388</text></g><g transform="translate(661 118)"><rect width="188" height="78" rx="17" fill="#111827" stroke="#16a34a" stroke-width="1.3"/><text x="17" y="29" fill="#94a3b8" font-size="13" font-family="Segoe UI,Arial">Total Forks</text><text x="17" y="57" fill="#fff" font-size="22" font-weight="700" font-family="Segoe UI,Arial">26</text></g><g transform="translate(28 221)"><rect width="188" height="78" rx="17" fill="#111827" stroke="#2563eb" stroke-width="1.3"/><text x="17" y="29" fill="#94a3b8" font-size="13" font-family="Segoe UI,Arial">Followers</text><text x="17" y="57" fill="#fff" font-size="22" font-weight="700" font-family="Segoe UI,Arial">13</text></g><g transform="translate(239 221)"><rect width="188" height="78" rx="17" fill="#111827" stroke="#06b6d4" stroke-width="1.3"/><text x="17" y="29" fill="#94a3b8" font-size="13" font-family="Segoe UI,Arial">Top Language</text><text x="17" y="57" fill="#fff" font-size="22" font-weight="700" font-family="Segoe UI,Arial">JavaScript</text></g><g transform="translate(450 221)"><rect width="188" height="78" rx="17" fill="#111827" stroke="#db2777" stroke-width="1.3"/><text x="17" y="29" fill="#94a3b8" font-size="13" font-family="Segoe UI,Arial">Repo Size</text><text x="17" y="57" fill="#fff" font-size="22" font-weight="700" font-family="Segoe UI,Arial">681.6 MB</text></g><g transform="translate(661 221)"><rect width="188" height="78" rx="17" fill="#111827" stroke="#16a34a" stroke-width="1.3"/><text x="17" y="29" fill="#94a3b8" font-size="13" font-family="Segoe UI,Arial">Account Age</text><text x="17" y="57" fill="#fff" font-size="22" font-weight="700" font-family="Segoe UI,Arial">1y 9m</text></g><text x="28" y="317" fill="#94a3b8" font-size="13" font-family="Segoe UI,Arial">Top repo: dashterm · Recent repo: akaanakbaik · Largest repo: Hacktoberfest2025-3</text></svg>
