<svg width="900" height="252" viewBox="0 0 900 252" fill="none" xmlns="http://www.w3.org/2000/svg"><defs><linearGradient id="bg" x1="0" y1="0" x2="900" y2="252"><stop stop-color="#0f172a"/><stop offset=".55" stop-color="#111827"/><stop offset="1" stop-color="#312e81"/></linearGradient><linearGradient id="bar" x1="0" y1="0" x2="900" y2="0"><stop stop-color="#667eea"/><stop offset="1" stop-color="#764ba2"/></linearGradient></defs><rect width="900" height="252" rx="26" fill="url(#bg)"/><circle cx="820" cy="40" r="125" fill="#667eea" opacity=".12"/><circle cx="95" cy="232" r="140" fill="#764ba2" opacity=".12"/><text x="28" y="44" fill="#fff" font-size="27" font-weight="900" font-family="Segoe UI,Arial">Languages from All Repositories</text><text x="28" y="68" fill="#94a3b8" font-size="13" font-family="Segoe UI,Arial">Rightmost badge is the most used language by scanned repository bytes</text><rect x="28" y="84" width="844" height="4" rx="2" fill="url(#bar)"/><g transform="translate(718 112)"><rect width="152" height="31" rx="15.5" fill="#667eea"/><text x="76" y="20" text-anchor="middle" fill="#fff" font-size="13" font-weight="800" font-family="Segoe UI,Arial">JavaScript · 70</text></g><g transform="translate(556 112)"><rect width="152" height="31" rx="15.5" fill="#764ba2"/><text x="76" y="20" text-anchor="middle" fill="#fff" font-size="13" font-weight="800" font-family="Segoe UI,Arial">TypeScript · 30</text></g><g transform="translate(426 112)"><rect width="120" height="31" rx="15.5" fill="#2563eb"/><text x="60" y="20" text-anchor="middle" fill="#fff" font-size="13" font-weight="800" font-family="Segoe UI,Arial">Python · 12</text></g><g transform="translate(320 112)"><rect width="96" height="31" rx="15.5" fill="#16a34a"/><text x="48" y="20" text-anchor="middle" fill="#fff" font-size="13" font-weight="800" font-family="Segoe UI,Arial">CSS · 51</text></g><g transform="translate(214 112)"><rect width="96" height="31" rx="15.5" fill="#f59e0b"/><text x="48" y="20" text-anchor="middle" fill="#fff" font-size="13" font-weight="800" font-family="Segoe UI,Arial">C++ · 9</text></g><g transform="translate(678 156)"><rect width="192" height="31" rx="15.5" fill="#06b6d4"/><text x="96" y="20" text-anchor="middle" fill="#fff" font-size="13" font-weight="800" font-family="Segoe UI,Arial">Jupyter Notebook · 1</text></g><g transform="translate(564 156)"><rect width="104" height="31" rx="15.5" fill="#db2777"/><text x="52" y="20" text-anchor="middle" fill="#fff" font-size="13" font-weight="800" font-family="Segoe UI,Arial">HTML · 51</text></g><g transform="translate(458 156)"><rect width="96" height="31" rx="15.5" fill="#ef4444"/><text x="48" y="20" text-anchor="middle" fill="#fff" font-size="13" font-weight="800" font-family="Segoe UI,Arial">Java · 7</text></g><g transform="translate(352 156)"><rect width="96" height="31" rx="15.5" fill="#667eea"/><text x="48" y="20" text-anchor="middle" fill="#fff" font-size="13" font-weight="800" font-family="Segoe UI,Arial">C · 7</text></g><g transform="translate(230 156)"><rect width="112" height="31" rx="15.5" fill="#764ba2"/><text x="56" y="20" text-anchor="middle" fill="#fff" font-size="13" font-weight="800" font-family="Segoe UI,Arial">Shell · 20</text></g><g transform="translate(124 156)"><rect width="96" height="31" rx="15.5" fill="#2563eb"/><text x="48" y="20" text-anchor="middle" fill="#fff" font-size="13" font-weight="800" font-family="Segoe UI,Arial">Rust · 3</text></g><g transform="translate(774 200)"><rect width="96" height="31" rx="15.5" fill="#16a34a"/><text x="48" y="20" text-anchor="middle" fill="#fff" font-size="13" font-weight="800" font-family="Segoe UI,Arial">Dart · 4</text></g><g transform="translate(668 200)"><rect width="96" height="31" rx="15.5" fill="#f59e0b"/><text x="48" y="20" text-anchor="middle" fill="#fff" font-size="13" font-weight="800" font-family="Segoe UI,Arial">Go · 5</text></g><g transform="translate(562 200)"><rect width="96" height="31" rx="15.5" fill="#06b6d4"/><text x="48" y="20" text-anchor="middle" fill="#fff" font-size="13" font-weight="800" font-family="Segoe UI,Arial">PHP · 5</text></g></svg>
