<svg width="900" height="208" viewBox="0 0 900 208" fill="none" xmlns="http://www.w3.org/2000/svg"><defs><linearGradient id="bg" x1="0" y1="0" x2="900" y2="208"><stop stop-color="#0f172a"/><stop offset=".55" stop-color="#111827"/><stop offset="1" stop-color="#312e81"/></linearGradient><linearGradient id="bar" x1="0" y1="0" x2="900" y2="0"><stop stop-color="#667eea"/><stop offset="1" stop-color="#764ba2"/></linearGradient></defs><rect width="900" height="208" rx="26" fill="url(#bg)"/><circle cx="820" cy="40" r="125" fill="#667eea" opacity=".12"/><circle cx="95" cy="188" r="140" fill="#764ba2" opacity=".12"/><text x="28" y="44" fill="#fff" font-size="27" font-weight="900" font-family="Segoe UI,Arial">Frontend Stack from Repository Scan</text><text x="28" y="68" fill="#94a3b8" font-size="13" font-family="Segoe UI,Arial">Detected from package.json dependencies across all public repositories</text><rect x="28" y="84" width="844" height="4" rx="2" fill="url(#bar)"/><g transform="translate(758 112)"><rect width="112" height="31" rx="15.5" fill="#667eea"/><text x="56" y="20" text-anchor="middle" fill="#fff" font-size="13" font-weight="800" font-family="Segoe UI,Arial">React · 31</text></g><g transform="translate(612 112)"><rect width="136" height="31" rx="15.5" fill="#764ba2"/><text x="68" y="20" text-anchor="middle" fill="#fff" font-size="13" font-weight="800" font-family="Segoe UI,Arial">Tailwind · 30</text></g><g transform="translate(482 112)"><rect width="120" height="31" rx="15.5" fill="#2563eb"/><text x="60" y="20" text-anchor="middle" fill="#fff" font-size="13" font-weight="800" font-family="Segoe UI,Arial">Lucide · 26</text></g><g transform="translate(296 112)"><rect width="176" height="31" rx="15.5" fill="#16a34a"/><text x="88" y="20" text-anchor="middle" fill="#fff" font-size="13" font-weight="800" font-family="Segoe UI,Arial">Framer Motion · 25</text></g><g transform="translate(182 112)"><rect width="104" height="31" rx="15.5" fill="#f59e0b"/><text x="52" y="20" text-anchor="middle" fill="#fff" font-size="13" font-weight="800" font-family="Segoe UI,Arial">Vite · 23</text></g><g transform="translate(718 156)"><rect width="152" height="31" rx="15.5" fill="#06b6d4"/><text x="76" y="20" text-anchor="middle" fill="#fff" font-size="13" font-weight="800" font-family="Segoe UI,Arial">Vite React · 22</text></g><g transform="translate(588 156)"><rect width="120" height="31" rx="15.5" fill="#db2777"/><text x="60" y="20" text-anchor="middle" fill="#fff" font-size="13" font-weight="800" font-family="Segoe UI,Arial">Next.js · 9</text></g><g transform="translate(482 156)"><rect width="96" height="31" rx="15.5" fill="#ef4444"/><text x="48" y="20" text-anchor="middle" fill="#fff" font-size="13" font-weight="800" font-family="Segoe UI,Arial">R3F · 1</text></g><g transform="translate(344 156)"><rect width="128" height="31" rx="15.5" fill="#667eea"/><text x="64" y="20" text-anchor="middle" fill="#fff" font-size="13" font-weight="800" font-family="Segoe UI,Arial">Three.js · 1</text></g></svg>
