<svg width="900" height="252" viewBox="0 0 900 252" fill="none" xmlns="http://www.w3.org/2000/svg"><defs><linearGradient id="bg" x1="0" y1="0" x2="900" y2="252"><stop stop-color="#0f172a"/><stop offset=".55" stop-color="#111827"/><stop offset="1" stop-color="#312e81"/></linearGradient><linearGradient id="bar" x1="0" y1="0" x2="900" y2="0"><stop stop-color="#667eea"/><stop offset="1" stop-color="#764ba2"/></linearGradient></defs><rect width="900" height="252" rx="26" fill="url(#bg)"/><circle cx="820" cy="40" r="125" fill="#667eea" opacity=".12"/><circle cx="95" cy="232" r="140" fill="#764ba2" opacity=".12"/><text x="28" y="44" fill="#fff" font-size="27" font-weight="900" font-family="Segoe UI,Arial">Backend Stack from Repository Scan</text><text x="28" y="68" fill="#94a3b8" font-size="13" font-family="Segoe UI,Arial">Detected from package.json dependencies across all public repositories</text><rect x="28" y="84" width="844" height="4" rx="2" fill="url(#bar)"/><g transform="translate(742 112)"><rect width="128" height="31" rx="15.5" fill="#667eea"/><text x="64" y="20" text-anchor="middle" fill="#fff" font-size="13" font-weight="800" font-family="Segoe UI,Arial">Express · 23</text></g><g transform="translate(620 112)"><rect width="112" height="31" rx="15.5" fill="#764ba2"/><text x="56" y="20" text-anchor="middle" fill="#fff" font-size="13" font-weight="800" font-family="Segoe UI,Arial">Axios · 18</text></g><g transform="translate(482 112)"><rect width="128" height="31" rx="15.5" fill="#2563eb"/><text x="64" y="20" text-anchor="middle" fill="#fff" font-size="13" font-weight="800" font-family="Segoe UI,Arial">Drizzle · 11</text></g><g transform="translate(344 112)"><rect width="128" height="31" rx="15.5" fill="#16a34a"/><text x="64" y="20" text-anchor="middle" fill="#fff" font-size="13" font-weight="800" font-family="Segoe UI,Arial">Neon DB · 11</text></g><g transform="translate(206 112)"><rect width="128" height="31" rx="15.5" fill="#f59e0b"/><text x="64" y="20" text-anchor="middle" fill="#fff" font-size="13" font-weight="800" font-family="Segoe UI,Arial">Supabase · 9</text></g><g transform="translate(52 112)"><rect width="144" height="31" rx="15.5" fill="#06b6d4"/><text x="72" y="20" text-anchor="middle" fill="#fff" font-size="13" font-weight="800" font-family="Segoe UI,Arial">PostgreSQL · 6</text></g><g transform="translate(742 156)"><rect width="128" height="31" rx="15.5" fill="#db2777"/><text x="64" y="20" text-anchor="middle" fill="#fff" font-size="13" font-weight="800" font-family="Segoe UI,Arial">Postgres · 2</text></g><g transform="translate(612 156)"><rect width="120" height="31" rx="15.5" fill="#ef4444"/><text x="60" y="20" text-anchor="middle" fill="#fff" font-size="13" font-weight="800" font-family="Segoe UI,Arial">Baileys · 1</text></g><g transform="translate(506 156)"><rect width="96" height="31" rx="15.5" fill="#667eea"/><text x="48" y="20" text-anchor="middle" fill="#fff" font-size="13" font-weight="800" font-family="Segoe UI,Arial">Cron · 1</text></g><g transform="translate(368 156)"><rect width="128" height="31" rx="15.5" fill="#764ba2"/><text x="64" y="20" text-anchor="middle" fill="#fff" font-size="13" font-weight="800" font-family="Segoe UI,Arial">Mongoose · 1</text></g><g transform="translate(254 156)"><rect width="104" height="31" rx="15.5" fill="#2563eb"/><text x="52" y="20" text-anchor="middle" fill="#fff" font-size="13" font-weight="800" font-family="Segoe UI,Arial">MySQL · 1</text></g><g transform="translate(100 156)"><rect width="144" height="31" rx="15.5" fill="#16a34a"/><text x="72" y="20" text-anchor="middle" fill="#fff" font-size="13" font-weight="800" font-family="Segoe UI,Arial">Playwright · 1</text></g><g transform="translate(758 200)"><rect width="112" height="31" rx="15.5" fill="#f59e0b"/><text x="56" y="20" text-anchor="middle" fill="#fff" font-size="13" font-weight="800" font-family="Segoe UI,Arial">Prisma · 1</text></g><g transform="translate(612 200)"><rect width="136" height="31" rx="15.5" fill="#06b6d4"/><text x="68" y="20" text-anchor="middle" fill="#fff" font-size="13" font-weight="800" font-family="Segoe UI,Arial">Puppeteer · 1</text></g></svg>
