<svg width="900" height="390" viewBox="0 0 900 390" fill="none" xmlns="http://www.w3.org/2000/svg"><defs><linearGradient id="bg" x1="0" y1="0" x2="900" y2="390"><stop stop-color="#0f172a"/><stop offset=".55" stop-color="#111827"/><stop offset="1" stop-color="#312e81"/></linearGradient><linearGradient id="bar" x1="0" y1="0" x2="900" y2="0"><stop stop-color="#667eea"/><stop offset="1" stop-color="#764ba2"/></linearGradient></defs><rect width="900" height="390" rx="26" fill="url(#bg)"/><circle cx="820" cy="40" r="125" fill="#667eea" opacity=".12"/><circle cx="95" cy="370" r="140" fill="#764ba2" opacity=".12"/><text x="28" y="44" fill="#fff" font-size="27" font-weight="900" font-family="Segoe UI,Arial">Top Languages</text><text x="28" y="68" fill="#94a3b8" font-size="13" font-family="Segoe UI,Arial">Scanned from every public repository via GitHub /languages API</text><rect x="28" y="84" width="844" height="4" rx="2" fill="url(#bar)"/><g transform="translate(32 112)"><text x="0" y="17" fill="#e5e7eb" font-size="15" font-weight="700" font-family="Segoe UI,Arial">JavaScript</text><rect x="170" y="2" width="650" height="18" rx="9" fill="#1f2937"/><rect x="170" y="2" width="319" height="18" rx="9" fill="#667eea"/><text x="835" y="17" fill="#cbd5e1" font-size="13" text-anchor="end" font-family="Segoe UI,Arial">49% · 70 repos</text></g><g transform="translate(32 143)"><text x="0" y="17" fill="#e5e7eb" font-size="15" font-weight="700" font-family="Segoe UI,Arial">TypeScript</text><rect x="170" y="2" width="650" height="18" rx="9" fill="#1f2937"/><rect x="170" y="2" width="156" height="18" rx="9" fill="#764ba2"/><text x="835" y="17" fill="#cbd5e1" font-size="13" text-anchor="end" font-family="Segoe UI,Arial">24% · 30 repos</text></g><g transform="translate(32 174)"><text x="0" y="17" fill="#e5e7eb" font-size="15" font-weight="700" font-family="Segoe UI,Arial">Python</text><rect x="170" y="2" width="650" height="18" rx="9" fill="#1f2937"/><rect x="170" y="2" width="85" height="18" rx="9" fill="#2563eb"/><text x="835" y="17" fill="#cbd5e1" font-size="13" text-anchor="end" font-family="Segoe UI,Arial">13% · 12 repos</text></g><g transform="translate(32 205)"><text x="0" y="17" fill="#e5e7eb" font-size="15" font-weight="700" font-family="Segoe UI,Arial">CSS</text><rect x="170" y="2" width="650" height="18" rx="9" fill="#1f2937"/><rect x="170" y="2" width="20" height="18" rx="9" fill="#16a34a"/><text x="835" y="17" fill="#cbd5e1" font-size="13" text-anchor="end" font-family="Segoe UI,Arial">3% · 51 repos</text></g><g transform="translate(32 236)"><text x="0" y="17" fill="#e5e7eb" font-size="15" font-weight="700" font-family="Segoe UI,Arial">C++</text><rect x="170" y="2" width="650" height="18" rx="9" fill="#1f2937"/><rect x="170" y="2" width="18" height="18" rx="9" fill="#f59e0b"/><text x="835" y="17" fill="#cbd5e1" font-size="13" text-anchor="end" font-family="Segoe UI,Arial">2% · 9 repos</text></g><g transform="translate(32 267)"><text x="0" y="17" fill="#e5e7eb" font-size="15" font-weight="700" font-family="Segoe UI,Arial">Jupyter Notebook</text><rect x="170" y="2" width="650" height="18" rx="9" fill="#1f2937"/><rect x="170" y="2" width="18" height="18" rx="9" fill="#06b6d4"/><text x="835" y="17" fill="#cbd5e1" font-size="13" text-anchor="end" font-family="Segoe UI,Arial">2% · 1 repos</text></g><g transform="translate(32 298)"><text x="0" y="17" fill="#e5e7eb" font-size="15" font-weight="700" font-family="Segoe UI,Arial">HTML</text><rect x="170" y="2" width="650" height="18" rx="9" fill="#1f2937"/><rect x="170" y="2" width="18" height="18" rx="9" fill="#db2777"/><text x="835" y="17" fill="#cbd5e1" font-size="13" text-anchor="end" font-family="Segoe UI,Arial">2% · 51 repos</text></g><g transform="translate(32 329)"><text x="0" y="17" fill="#e5e7eb" font-size="15" font-weight="700" font-family="Segoe UI,Arial">Java</text><rect x="170" y="2" width="650" height="18" rx="9" fill="#1f2937"/><rect x="170" y="2" width="18" height="18" rx="9" fill="#ef4444"/><text x="835" y="17" fill="#cbd5e1" font-size="13" text-anchor="end" font-family="Segoe UI,Arial">2% · 7 repos</text></g></svg>
